name rise49.8558peak67.6521fall70.3087.mot
datacolumns 19
datarows 20
range 0.73832900000000 0.77000100000000
endheader
time	ground_force1_vx	ground_force1_vy	ground_force1_vz	ground_force1_px	ground_force1_py	ground_force1_pz	ground_force2_vx	ground_force2_vy	ground_force2_vz	ground_force2_px	ground_force2_py	ground_force2_pz	ground_torque1_x	ground_torque1_y	ground_torque1_z	ground_torque2_x	ground_torque2_y	ground_torque2_z	
0.73832900000000	-8.94205900000000	40.66535700000000	-6.09892100000000	0.33694100000000	0.00000000000000	0.09820800000000	-56.74983400000000	814.21906500000000	-60.23985600000000	0.10048600000000	0.00000000000000	-0.09736300000000	0.00000000000000	-3.59999500000000	0.00000000000000	0.00000000000000	-20.96612300000000	0.00000000000000	
0.74000000000000	-9.77985800000000	47.57358000000000	-6.85712100000000	0.33970000000000	0.00000000000000	0.09883600000000	-57.61594400000000	812.25339299999996	-59.79956400000000	0.09934400000000	0.00000000000000	-0.09725800000000	0.00000000000000	-4.11002600000000	0.00000000000000	0.00000000000000	-20.94364200000000	0.00000000000000	
0.74166500000000	-10.44168200000000	54.54675600000000	-7.54502800000000	0.34240600000000	0.00000000000000	0.09941300000000	-58.49009300000000	810.17449399999998	-59.33893700000000	0.09820700000000	0.00000000000000	-0.09715000000000	0.00000000000000	-4.59592300000000	0.00000000000000	0.00000000000000	-20.92235000000000	0.00000000000000	
0.74333100000000	-10.90333600000000	61.49380700000000	-8.14621700000000	0.34506700000000	0.00000000000000	0.09994500000000	-59.37159100000000	807.98063400000001	-58.85832500000000	0.09707900000000	0.00000000000000	-0.09703800000000	0.00000000000000	-5.04805200000000	0.00000000000000	0.00000000000000	-20.90227500000000	0.00000000000000	
0.74499600000000	-11.15077500000000	68.34664200000000	-8.64967700000000	0.34768700000000	0.00000000000000	0.10043800000000	-60.25968800000000	805.66999899999996	-58.35809000000000	0.09595900000000	0.00000000000000	-0.09692300000000	0.00000000000000	-5.45949000000000	0.00000000000000	0.00000000000000	-20.88342400000000	0.00000000000000	
0.74666600000000	-11.17991500000000	75.06217300000000	-9.04988600000000	0.35027200000000	0.00000000000000	0.10089800000000	-61.15357100000000	803.24070200000006	-57.83861400000000	0.09484900000000	0.00000000000000	-0.09680300000000	0.00000000000000	-5.82615200000000	0.00000000000000	0.00000000000000	-20.86579100000000	0.00000000000000	
0.74833100000000	-10.99567000000000	81.62193800000000	-9.34643300000000	0.35282400000000	0.00000000000000	0.10132800000000	-62.05236800000000	800.69078000000002	-57.30029100000000	0.09375100000000	0.00000000000000	-0.09668000000000	0.00000000000000	-6.14667500000000	0.00000000000000	0.00000000000000	-20.84935100000000	0.00000000000000	
0.75000200000000	-10.61041100000000	88.02975900000000	-9.54327700000000	0.35534500000000	0.00000000000000	0.10173300000000	-62.95514500000000	798.01819899999998	-56.74353300000000	0.09266600000000	0.00000000000000	-0.09655200000000	0.00000000000000	-6.42209700000000	0.00000000000000	0.00000000000000	-20.83406300000000	0.00000000000000	
0.75166900000000	-10.04208400000000	94.30796100000001	-9.64777900000000	0.35783600000000	0.00000000000000	0.10211400000000	-63.86090700000000	795.22086200000001	-56.16876300000000	0.09159400000000	0.00000000000000	-0.09642100000000	0.00000000000000	-6.65538100000000	0.00000000000000	0.00000000000000	-20.81986700000000	0.00000000000000	
0.75333400000000	-9.31219500000000	100.49272300000000	-9.66962700000000	0.36029700000000	0.00000000000000	0.10247400000000	-64.76859899999999	792.29660699999999	-55.57642000000000	0.09053800000000	0.00000000000000	-0.09628600000000	0.00000000000000	-6.85088000000000	0.00000000000000	0.00000000000000	-20.80668700000000	0.00000000000000	
0.75500100000000	-8.44385100000000	106.62909500000001	-9.61975100000000	0.36272700000000	0.00000000000000	0.10281700000000	-65.67710700000001	789.24321899999995	-54.96695500000000	0.08949900000000	0.00000000000000	-0.09614700000000	0.00000000000000	-7.01375700000000	0.00000000000000	0.00000000000000	-20.79442700000000	0.00000000000000	
0.75666100000000	-7.46001600000000	112.76614600000001	-9.50933200000000	0.36512700000000	0.00000000000000	0.10314200000000	-66.58525899999999	786.05843300000004	-54.34083100000000	0.08847700000000	0.00000000000000	-0.09600400000000	0.00000000000000	-7.14945200000000	0.00000000000000	0.00000000000000	-20.78297400000000	0.00000000000000	
0.75832800000000	-6.38206600000000	118.95260200000000	-9.34895400000000	0.36749500000000	0.00000000000000	0.10345300000000	-67.49182300000000	782.73994000000005	-53.69852500000000	0.08747400000000	0.00000000000000	-0.09585700000000	0.00000000000000	-7.26320500000000	0.00000000000000	0.00000000000000	-20.77219800000000	0.00000000000000	
0.76000100000000	-5.22872300000000	125.23323800000000	-9.14795500000000	0.36983000000000	0.00000000000000	0.10375000000000	-68.39551400000001	779.28539599999999	-53.04052400000000	0.08649000000000	0.00000000000000	-0.09570600000000	0.00000000000000	-7.35967500000000	0.00000000000000	0.00000000000000	-20.76195000000000	0.00000000000000	
0.76166100000000	-4.01537600000000	131.64616799999999	-8.91397900000000	0.37213000000000	0.00000000000000	0.10403600000000	-69.29498900000000	775.69243100000006	-52.36732700000000	0.08552700000000	0.00000000000000	-0.09555100000000	0.00000000000000	-7.44266500000000	0.00000000000000	0.00000000000000	-20.75206500000000	0.00000000000000	
0.76333200000000	-2.75376800000000	138.22108200000000	-8.65274200000000	0.37439400000000	0.00000000000000	0.10431000000000	-70.18885100000000	771.95865700000002	-51.67944300000000	0.08458500000000	0.00000000000000	-0.09539200000000	0.00000000000000	-7.51496000000000	0.00000000000000	0.00000000000000	-20.74236000000000	0.00000000000000	
0.76500000000000	-1.45202100000000	144.97838999999999	-8.36797700000000	0.37662000000000	0.00000000000000	0.10457400000000	-71.07565300000000	768.08167500000002	-50.97739200000000	0.08366500000000	0.00000000000000	-0.09523000000000	0.00000000000000	-7.57826700000000	0.00000000000000	0.00000000000000	-20.73263600000000	0.00000000000000	
0.76666400000000	-0.11492000000000	151.92917900000000	-8.06154100000000	0.37880500000000	0.00000000000000	0.10482900000000	-71.95389700000000	764.05908899999997	-50.26170500000000	0.08276900000000	0.00000000000000	-0.09506300000000	0.00000000000000	-7.63324300000000	0.00000000000000	0.00000000000000	-20.72267700000000	0.00000000000000	
0.76832700000000	1.25560000000000	159.07583299999999	-7.73364600000000	0.38094900000000	0.00000000000000	0.10507600000000	-72.82203500000000	759.88851499999998	-49.53292000000000	0.08189600000000	0.00000000000000	-0.09489300000000	0.00000000000000	-7.67960200000000	0.00000000000000	0.00000000000000	-20.71225300000000	0.00000000000000	
0.77000100000000	2.65984500000000	166.41315000000000	-7.38316600000000	0.38304800000000	0.00000000000000	0.10531400000000	-73.67847500000001	755.56759000000000	-48.79158500000000	0.08104700000000	0.00000000000000	-0.09471900000000	0.00000000000000	-7.71626700000000	0.00000000000000	0.00000000000000	-20.70111800000000	0.00000000000000	
